# xmcd CD database file
# Copyright (C) 1993-1998 Ti Kan
#
# Track frame offsets:
#  225
#  31528
#  55882
#  78129
#  103417
#  120122
#  139721
#  170815
#  195289
#  220340
#  238361
#  254880
#  276836
#  296436
#
# Disc length: 4368 seconds
#
# Revision: 1
# Processed by: cddbd v1.4b41PL1 Copyright (c) Steve Scherf et al.
# Submitted via: CDWizzard Release:4.35
#
DISCID=cd110d0e
DTITLE=Barry White - Gold
DYEAR=1900
DGENRE=
TTITLE0=Found Love
TTITLE1=Didn't We Make It Happy Baby
TTITLE2=Love Making Music
TTITLE3=I'm On Fire
TTITLE4=Relax To The Max
TTITLE5=I Won't Settle For Less
TTITLE6=Don't Tell Me About Heartaches
TTITLE7=The Better Love Is
TTITLE8=Love Ain't Easy
TTITLE9=Ooh ... Ahh...
TTITLE10=Life
TTITLE11=Bewere
TTITLE12=You're The One I Need
TTITLE13=All In The Run Of A Day
EXTD=Lilo
EXTT0=
EXTT1=
EXTT2=
EXTT3=
EXTT4=
EXTT5=
EXTT6=
EXTT7=
EXTT8=
EXTT9=
EXTT10=
EXTT11=
EXTT12=
EXTT13=
PLAYORDER=
